<svg xmlns="http://www.w3.org/2000/svg" version="1.1" xmlns:xlink="http://www.w3.org/1999/xlink" xmlns:svgjs="http://svgjs.dev/svgjs" width="1440" height="560" preserveAspectRatio="none" viewBox="0 0 1440 560"><g mask="url(&quot;#SvgjsMask1003&quot;)" fill="none"><path d="M -326.35078546637635,408 C -230.35,376.4 -38.35,270.4 153.64921453362368,250 C 345.65,229.6 441.65,342 633.6492145336236,306 C 825.65,270 921.65,74 1113.6492145336238,70 C 1305.65,66 1528.38,283.4 1593.6492145336238,286 C 1658.92,288.6 1470.73,123.6 1440,83" stroke="rgba(15, 14, 15, 1)" stroke-width="2"></path><path d="M -718.286970491961,270 C -622.29,311.6 -430.29,500 -238.28697049196106,478 C -46.29,456 49.71,187.2 241.71302950803894,160 C 433.71,132.8 529.71,328.6 721.713029508039,342 C 913.71,355.4 1058.06,237.8 1201.713029508039,227 C 1345.37,216.2 1392.34,275.8 1440,288" stroke="rgba(15, 14, 15, 1)" stroke-width="2"></path><path d="M -720.1747585385593,146 C -624.17,187.6 -432.17,366.6 -240.17475853855933,354 C -48.17,341.4 47.83,97.6 239.82524146144067,83 C 431.83,68.4 527.83,286.2 719.8252414614407,281 C 911.83,275.8 1055.79,46 1199.8252414614408,57 C 1343.86,68 1391.97,280.2 1440,336" stroke="rgba(15, 14, 15, 1)" stroke-width="2"></path><path d="M -298.3337414419576,222 C -202.33,265 -10.33,430.4 181.6662585580424,437 C 373.67,443.6 469.67,263.2 661.6662585580424,255 C 853.67,246.8 949.67,435.2 1141.6662585580425,396 C 1333.67,356.8 1562,64.4 1621.6662585580425,59 C 1681.33,53.6 1476.33,307 1440,369" stroke="rgba(15, 14, 15, 1)" stroke-width="2"></path></g><defs><mask id="SvgjsMask1003"><rect width="1440" height="560" fill="#ffffff"></rect></mask></defs></svg>